<svg width="120" height="120" viewBox="0 0 120 120" fill="none" xmlns="http://www.w3.org/2000/svg">
<path d="M42.2903 106.781C41.4202 105.911 40.5951 105.626 39.4399 105.626H27.4084C18.4373 105.626 14.4168 101.575 14.4168 92.6328V80.5998C14.4168 79.4445 14.0867 78.6193 13.2616 77.7491L4.74057 69.1819C-1.54522 62.8503 -1.59022 57.2239 4.74057 50.8923L13.2616 42.2802C14.0867 41.455 14.4168 40.6298 14.4168 39.4595V27.3815C14.4168 18.4092 18.4223 14.4332 27.4084 14.4332H39.4399C40.5951 14.4332 41.4652 14.1032 42.2903 13.2779L50.8563 4.75582C57.1871 -1.57577 62.8128 -1.62078 69.1436 4.75582L77.7097 13.2779C78.5798 14.1032 79.4049 14.4332 80.5601 14.4332H92.5916C101.563 14.4332 105.583 18.4842 105.583 27.3815V39.4595C105.583 40.6148 105.913 41.44 106.738 42.2802L115.259 50.8923C121.545 57.2239 121.59 62.8503 115.259 69.1819L106.738 77.7491C105.913 78.6193 105.583 79.4445 105.583 80.5998V92.6328C105.583 101.605 101.533 105.626 92.5916 105.626H80.5601C79.4049 105.626 78.5798 105.911 77.7097 106.781L69.1436 115.258C62.8128 121.545 57.1871 121.59 50.8563 115.258L42.2903 106.781ZM64.058 110.172L74.2293 99.9996C75.3394 98.7993 76.5396 98.3792 78.1147 98.3792H92.5916C97.4672 98.3792 98.3373 97.464 98.3373 92.6328V78.1092C98.3373 76.5338 98.8323 75.3335 99.9575 74.2232L110.174 64.0806C113.609 60.5998 113.609 59.4445 110.174 55.9786L99.9575 45.8061C98.8473 44.6958 98.3373 43.4955 98.3373 41.9201V27.3965C98.3373 22.5503 97.4672 21.68 92.5916 21.68H78.1147C76.5396 21.68 75.3394 21.2299 74.2293 20.0596L64.058 9.85709C60.5776 6.42123 59.4224 6.42123 55.957 9.85709L45.7857 20.0746C44.6756 21.2299 43.5054 21.695 41.9452 21.695H27.4234C22.5028 21.695 21.6777 22.5203 21.6777 27.4115V41.9351C21.6777 43.5105 21.1826 44.7108 20.0575 45.8211L9.84121 55.9936C6.45078 59.4745 6.45078 60.6298 9.84121 64.0956L20.0575 74.2382C21.1676 75.3485 21.6777 76.5488 21.6777 78.1242V92.6478C21.6777 97.494 22.5928 98.3942 27.4234 98.3942H41.9452C43.5204 98.3942 44.6756 98.8143 45.7857 100.015L55.957 110.187C59.4224 113.608 60.5776 113.608 64.058 110.172ZM48.6661 84.3207L31.4139 64.9209C30.7088 64.2157 30.3788 63.3455 30.3788 62.4452C30.3788 60.3297 31.999 58.7993 34.2193 58.7993C35.3744 58.7993 36.2895 59.1744 37.0396 59.9996L51.3964 76.0086L78.7298 37.359C79.6449 36.1137 80.47 35.5735 82.0002 35.5735C84.1155 35.5735 85.7207 37.1489 85.7207 39.2194C85.7207 39.9996 85.3907 40.8698 84.8956 41.575L54.5768 84.1107C53.9167 84.9809 52.8816 85.566 51.5164 85.566C50.2413 85.566 49.3711 85.0709 48.6661 84.3207Z" fill="white"/>
</svg>
