<svg width="120" height="120" viewBox="0 0 120 120" fill="none" xmlns="http://www.w3.org/2000/svg">
<path d="M42.2875 106.791C41.4173 105.921 40.592 105.636 39.4367 105.636H27.4033C18.4308 105.636 14.4097 101.585 14.4097 92.6425V80.6095C14.4097 79.4542 14.0796 78.629 13.2544 77.7588L4.73197 69.1917C-1.5548 62.8601 -1.59981 57.2337 4.73197 50.9021L13.2544 42.29C14.0796 41.4647 14.4097 40.6395 14.4097 39.4692V27.3912C14.4097 18.419 18.4158 14.443 27.4033 14.443H39.4367C40.592 14.443 41.4623 14.1129 42.2875 13.2877L50.8549 4.76558C57.1867 -1.566 62.8133 -1.61101 69.1451 4.76558L77.7125 13.2877C78.5827 14.1129 79.408 14.443 80.5633 14.443H92.5967C101.569 14.443 105.59 18.494 105.59 27.3912V39.4692C105.59 40.6245 105.92 41.4497 106.746 42.29L115.268 50.9021C121.555 57.2337 121.6 62.8601 115.268 69.1917L106.746 77.7588C105.92 78.629 105.59 79.4542 105.59 80.6095V92.6425C105.59 101.615 101.539 105.636 92.5967 105.636H80.5633C79.408 105.636 78.5827 105.921 77.7125 106.791L69.1451 115.268C62.8133 121.555 57.1867 121.6 50.8549 115.268L42.2875 106.791ZM64.0586 110.182L74.2315 100.009C75.3418 98.8091 76.5421 98.389 78.1176 98.389H92.5967C97.473 98.389 98.3433 97.4737 98.3433 92.6425V78.1189C98.3433 76.5435 98.8384 75.3432 99.9637 74.2329L110.182 64.0904C113.618 60.6095 113.618 59.4542 110.182 55.9884L99.9637 45.8158C98.8534 44.7056 98.3433 43.5053 98.3433 41.9299V27.4062C98.3433 22.56 97.473 21.6898 92.5967 21.6898H78.1176C76.5421 21.6898 75.3418 21.2397 74.2315 20.0694L64.0586 9.86685C60.5777 6.431 59.4223 6.431 55.9564 9.86685L45.7835 20.0844C44.6732 21.2397 43.5029 21.7048 41.9424 21.7048H27.4183C22.497 21.7048 21.6717 22.53 21.6717 27.4212V41.9449C21.6717 43.5203 21.1766 44.7206 20.0513 45.8308L9.8334 56.0034C6.44245 59.4842 6.44245 60.6395 9.8334 64.1054L20.0513 74.2479C21.1616 75.3582 21.6717 76.5585 21.6717 78.1339V92.6575C21.6717 97.5037 22.587 98.404 27.4183 98.404H41.9424C43.5179 98.404 44.6732 98.8241 45.7835 100.024L55.9564 110.197C59.4223 113.618 60.5777 113.618 64.0586 110.182ZM37.8163 78.8241C37.8163 77.7888 38.1914 76.9186 38.9266 76.2134L54.771 60.3245L38.9416 44.4505C38.1914 43.7453 37.8313 42.8751 37.8313 41.8398C37.8313 39.8143 39.4517 38.2389 41.5073 38.2389C42.5426 38.2389 43.3678 38.569 44.118 39.3492L59.9625 55.1482L75.927 39.3192C76.7072 38.494 77.5474 38.1639 78.4927 38.1639C80.5633 38.1639 82.2137 39.7843 82.2137 41.8098C82.2137 42.8451 81.8386 43.6253 81.0584 44.4205L65.214 60.3395L81.0134 76.1834C81.7636 76.9336 82.1687 77.7588 82.1687 78.8241C82.1687 80.8496 80.5183 82.5 78.4477 82.5C77.4124 82.5 76.4971 82.0799 75.8069 81.3447L59.9625 65.5008L44.1931 81.3447C43.4428 82.1249 42.5426 82.5 41.5073 82.5C39.4367 82.515 37.8163 80.8496 37.8163 78.8241Z" fill="white"/>
</svg>
